<svg width="13" height="13" viewBox="0 0 13 13" fill="none" xmlns="http://www.w3.org/2000/svg">
<g clip-path="url(#clip0_19_179)">
<path d="M6.07232 12.3866C6.07232 12.2249 6.00812 12.0699 5.89384 11.9557C5.77956 11.8414 5.62457 11.7772 5.46295 11.7772L3.00996 11.7772C2.53619 11.7766 2.08197 11.5882 1.74696 11.2532C1.41195 10.9182 1.22351 10.464 1.22297 9.99019L1.22297 3.0098C1.22351 2.53603 1.41195 2.08181 1.74696 1.7468C2.08197 1.41179 2.53619 1.22335 3.00996 1.22281L9.99035 1.22281C10.4641 1.22335 10.9183 1.41179 11.2534 1.7468C11.5884 2.08181 11.7768 2.53603 11.7773 3.0098L11.7773 5.46279C11.7773 5.62441 11.8415 5.7794 11.9558 5.89368C12.0701 6.00796 12.2251 6.07217 12.3867 6.07217C12.5483 6.07217 12.7033 6.00796 12.8176 5.89368C12.9319 5.7794 12.9961 5.62441 12.9961 5.46279L12.9961 3.0098C12.9952 2.21292 12.6782 1.44894 12.1147 0.88546C11.5512 0.321977 10.7872 0.00499956 9.99035 0.0040588L3.00996 0.00405872C2.21308 0.00499946 1.4491 0.321977 0.885619 0.885459C0.322137 1.44894 0.00515935 2.21292 0.00421902 3.0098L0.00421894 9.99019C0.00515925 10.7871 0.322137 11.5511 0.885619 12.1145C1.4491 12.678 2.21308 12.995 3.00996 12.9959L5.46295 12.9959C5.62457 12.9959 5.77956 12.9317 5.89384 12.8175C6.00812 12.7032 6.07232 12.5482 6.07232 12.3866Z" fill="#888888"/>
<path d="M13 12.3736L13 8.58533C13 8.42576 12.9375 8.27255 12.8258 8.1586C12.714 8.04466 12.5621 7.97908 12.4026 7.97596C12.0605 7.96961 11.7812 8.25729 11.7812 8.59904L11.7812 10.918L6.92656 6.0648C6.81228 5.95053 6.65729 5.88634 6.49568 5.88634C6.33407 5.88634 6.17908 5.95053 6.06481 6.0648C5.95053 6.17908 5.88634 6.33407 5.88634 6.49568C5.88634 6.65729 5.95053 6.81228 6.06481 6.92656L10.918 11.7813L8.59066 11.7813C8.42905 11.7813 8.27405 11.8455 8.15977 11.9597C8.04549 12.074 7.98129 12.229 7.98129 12.3906C7.98129 12.5522 8.04549 12.7072 8.15977 12.8215C8.27405 12.9358 8.42905 13 8.59066 13L12.3739 13C12.4561 13 12.5376 12.9838 12.6135 12.9523C12.6895 12.9208 12.7586 12.8747 12.8167 12.8165C12.8748 12.7584 12.921 12.6893 12.9524 12.6133C12.9839 12.5373 13 12.4559 13 12.3736Z" fill="#888888"/>
</g>
<defs>
<clipPath id="clip0_19_179">
<rect width="13" height="13" fill="white" transform="translate(13) rotate(90)"/>
</clipPath>
</defs>
</svg>
