<svg width="13" height="13" viewBox="0 0 13 13" fill="none" xmlns="http://www.w3.org/2000/svg">
<g clip-path="url(#clip0_19_175)">
<path d="M6.07208 0.613409C6.07208 0.775026 6.00788 0.930023 5.8936 1.0443C5.77932 1.15858 5.62432 1.22278 5.4627 1.22278L3.00972 1.22278C2.53594 1.22332 2.08173 1.41177 1.74672 1.74678C1.41171 2.08179 1.22326 2.536 1.22272 3.00978L1.22272 9.99017C1.22326 10.4639 1.41171 10.9182 1.74672 11.2532C2.08173 11.5882 2.53594 11.7766 3.00972 11.7772L9.99011 11.7772C10.4639 11.7766 10.9181 11.5882 11.2531 11.2532C11.5881 10.9182 11.7766 10.4639 11.7771 9.99017L11.7771 7.53718C11.7771 7.37556 11.8413 7.22057 11.9556 7.10629C12.0699 6.99201 12.2249 6.9278 12.3865 6.9278C12.5481 6.9278 12.7031 6.99201 12.8174 7.10629C12.9316 7.22057 12.9958 7.37556 12.9958 7.53718L12.9958 9.99017C12.9949 10.7871 12.6779 11.551 12.1144 12.1145C11.551 12.678 10.787 12.995 9.99011 12.9959L3.00972 12.9959C2.21283 12.995 1.44886 12.678 0.885375 12.1145C0.321893 11.551 0.00491514 10.7871 0.00397478 9.99017L0.00397448 3.00978C0.00491477 2.21289 0.321892 1.44892 0.885374 0.885436C1.44886 0.321953 2.21283 0.00497484 3.00972 0.00403448L5.4627 0.00403437C5.62432 0.00403436 5.77932 0.0682357 5.8936 0.182515C6.00788 0.296795 6.07208 0.451793 6.07208 0.613409Z" fill="#888888"/>
<path d="M13 0.626371L13 4.41465C13 4.57422 12.9375 4.72744 12.8258 4.84138C12.714 4.95532 12.5621 5.0209 12.4026 5.02403C12.0605 5.03038 11.7812 4.7427 11.7812 4.40094L11.7812 2.08202L6.92656 6.93518C6.81228 7.04945 6.65729 7.11365 6.49568 7.11365C6.33407 7.11365 6.17908 7.04945 6.06481 6.93518C5.95053 6.8209 5.88634 6.66591 5.88634 6.5043C5.88634 6.34269 5.95053 6.1877 6.0648 6.07342L10.918 1.21873L8.59066 1.21873C8.42905 1.21873 8.27405 1.15453 8.15977 1.04025C8.04549 0.925972 7.98129 0.770975 7.98129 0.609359C7.98129 0.447743 8.04549 0.292747 8.15977 0.178467C8.27405 0.0641868 8.42905 -1.60127e-05 8.59066 -1.60197e-05L12.3739 -1.61851e-05C12.4561 -1.61887e-05 12.5376 0.0161882 12.6135 0.0476704C12.6895 0.0791521 12.7586 0.125296 12.8167 0.183465C12.8748 0.241633 12.921 0.310688 12.9524 0.386683C12.9839 0.462678 13 0.544125 13 0.626371Z" fill="#888888"/>
</g>
<defs>
<clipPath id="clip0_19_175">
<rect width="13" height="13" fill="white" transform="matrix(-4.37114e-08 -1 -1 4.37114e-08 13 13)"/>
</clipPath>
</defs>
</svg>
