<svg width="8" height="14" viewBox="0 0 8 14" fill="none" xmlns="http://www.w3.org/2000/svg">
<path d="M5.91553 6.53929V1.96556C5.91553 0.88827 5.04614 0 3.94995 0C2.87266 0 1.98438 0.869371 1.98438 1.96556V6.53929C1.98438 7.61658 2.85376 8.50489 3.94995 8.50489C5.02724 8.50489 5.91553 7.63548 5.91553 6.53929Z" fill="#FF0000"/>
<path d="M7.9001 6.89839C7.9001 6.63379 7.6922 6.42589 7.42761 6.42589C7.16301 6.42589 6.95511 6.63379 6.95511 6.89839C6.95511 8.56157 5.61323 9.90343 3.95005 9.90343C2.28687 9.90343 0.944988 8.56157 0.944988 6.89839C0.944988 5.23521 0.737091 6.42589 0.472494 6.42589C0.207897 6.42589 0 6.63379 0 6.89839C0 8.92066 1.51198 10.5838 3.47756 10.8106V13.2487C3.47756 13.5133 3.68545 13.7212 3.95005 13.7212C4.21465 13.7212 4.42254 13.5133 4.42254 13.2487V10.8106C6.36922 10.5838 7.9001 8.90176 7.9001 6.89839Z" fill="#FF0000"/>
</svg>
